<svg width="72" height="100" viewBox="0 0 72 100" fill="none" xmlns="http://www.w3.org/2000/svg">
<path d="M8.97272 29.5436C8.96409 29.4872 8.07061 23.9709 13.6365 22.3744L13.8134 22.9991C8.81517 24.433 9.57484 29.2269 9.60937 29.4308L8.97272 29.5436Z" fill="#EFCA02"/>
<path d="M59.7157 29.5045C59.6467 27.4546 57.2835 25.1336 57.2598 25.1097L57.7324 24.6824C57.8381 24.7843 60.2855 27.1704 60.3632 29.4828L59.7157 29.5045Z" fill="#EFCA02"/>
<path d="M57.3916 25.2334C57.3657 25.2161 54.7867 23.4525 52.2531 23.0664C51.8128 22.9992 51.5366 22.8148 51.433 22.5176C51.2884 22.1033 51.5301 21.5762 52.1905 20.8625C53.6062 19.3289 56.537 17.3723 56.66 17.2899L57.0549 17.804L54.9831 19.6716L54.7824 19.446C54.0141 20.0404 53.2091 20.7128 52.6631 21.305C51.9682 22.0556 52.0416 22.3007 52.0437 22.3029C52.0524 22.3246 52.1214 22.3875 52.348 22.4222C55.0327 22.8321 57.6463 24.6196 57.7563 24.6955L57.3916 25.2334Z" fill="#EFCA02"/>
<path d="M11.1151 24.5067L11.3028 23.9861C11.3028 23.9861 9.80939 25.7106 9.71875 27.062C9.72091 27.0598 10.1223 25.4221 11.1151 24.5067C12.1078 23.5913 11.3028 23.9861 11.3028 23.9861L11.1151 24.5067Z" fill="#333333"/>
<path d="M55.168 23.459C55.168 23.459 57.229 24.1965 58.0534 25.164L57.9757 24.934" fill="#333333"/>
<path d="M57.975 24.9318C57.975 24.9318 57.9599 24.8212 57.6017 24.5956C57.2434 24.37 56.6024 23.8602 55.2687 23.3353C53.935 22.8125 55.1673 23.4568 55.1673 23.4568" fill="#333333"/>
<path d="M46.7148 32.463L58.1206 33.2027L63.1361 37.6972L62.7736 46.786C62.7736 46.786 53.9101 53.8574 53.4223 54.4214C52.9346 54.9854 44.7595 52.6036 44.7595 52.6036L41.4316 36.8989L46.7148 32.463Z" fill="#EFCA02"/>
<path d="M19.8975 56.0808C19.9899 56.0808 20.0845 56.0786 20.1791 56.0786L20.0071 56.1545L19.8975 56.0808Z" fill="#EFCA02"/>
<path d="M30.7402 39.7231L27.8871 52.6904L21.2465 55.61H21.2444L19.2481 55.6426H19.2459L7.10418 47.4475L5.13379 36.5193L10.5356 31.4088H23.9442L30.7402 39.7231Z" fill="#EFCA02"/>
<path d="M36.3626 77.2237C36.1339 77.0957 35.9008 76.9634 35.6677 76.8289C35.4346 76.6966 35.1972 76.5599 34.962 76.4211C34.5951 76.2042 34.2261 75.9851 33.8549 75.7595C33.1297 75.3213 32.4003 74.8658 31.6665 74.3929C32.7413 76.0371 34.1354 77.9417 35.8253 79.7746C35.8274 79.7768 35.8296 79.7768 35.8296 79.7746C35.8684 79.6943 35.9051 79.6141 35.9418 79.5317C36.2418 78.8592 36.4986 78.1564 36.7123 77.4211L36.3626 77.2237ZM36.0583 64.404C34.4138 60.853 31.3881 57.7902 26.9747 55.2197C24.5381 55.7772 22.1663 56.0462 20.1787 56.0787C20.0837 56.0787 19.9888 56.0809 19.896 56.0809H19.7859C14.0776 56.0809 10.5577 54.3651 10.5123 54.3434C7.61395 55.71 5.16445 57.9681 3.16385 61.1155C1.05534 64.4365 0 67.8117 0 71.2433C0 83.1325 6.16367 89.076 18.491 89.076C24.4043 89.076 29.0552 87.5207 32.4413 84.4079C33.0046 83.8895 33.5247 83.3342 33.993 82.7463C34.0966 82.6162 34.0858 82.4318 33.9736 82.3125C32.8147 81.0913 31.7766 79.8332 30.8702 78.625C29.9616 77.4146 29.1846 76.2541 28.5437 75.228C28.043 76.6272 27.2531 77.8679 26.174 78.946C24.1605 80.9546 21.5988 81.9589 18.491 81.9589C15.4912 81.9589 13.0482 80.9351 11.1598 78.8831C9.27141 76.8332 8.32829 74.2866 8.32829 71.2433C8.32829 65.5796 11.3821 61.0873 17.4918 57.7663C22.516 60.5016 25.723 62.866 27.1107 64.8616C27.8919 65.9853 28.453 67.1479 28.794 68.3562C28.8674 68.6143 29.0185 68.8464 29.2386 69.0026C29.5192 69.2065 29.804 69.4082 30.0867 69.6078C31.55 70.6359 33.0261 71.6142 34.4894 72.5253C34.8088 72.7248 35.126 72.9201 35.4433 73.111C36.0842 73.4992 36.7209 73.8745 37.3511 74.2346C37.4633 73.2801 37.5216 72.2845 37.5216 71.2433C37.5216 68.79 37.0338 66.5102 36.0583 64.404ZM30.9004 29.8059C28.0128 27.1552 23.9468 25.8298 18.6982 25.8298C13.8402 25.8298 9.87569 27.1552 6.80896 29.8059C3.74223 32.4588 2.20778 36.0574 2.20778 40.6061C2.20778 43.2568 3.02572 45.8251 4.66376 48.3066C6.25431 50.7166 8.28945 52.6146 10.7692 53.9985V53.9963C10.8123 54.018 13.974 55.5429 19.2464 55.6427H19.2485L21.2448 55.6102H21.247L26.7308 54.8423H26.733C28.9537 53.5278 30.9112 51.5257 32.6075 48.8316C34.3556 46.0529 35.2318 43.3263 35.2318 40.6473C35.2318 36.0704 33.788 32.4588 30.9004 29.8059ZM13.0611 45.9292C11.3778 44.144 10.5361 42.3415 10.5361 40.5215C10.5361 35.4717 13.2575 32.9447 18.6982 32.9447C21.1153 32.9447 23.0771 33.6236 24.5921 34.975C26.105 36.3307 26.8603 38.1506 26.8603 40.4369V40.5519C26.7891 47.747 17.9817 51.1547 13.0611 45.9292Z" fill="#020203"/>
<path d="M36.0659 64.3995C35.0084 66.5774 34.4775 68.9439 34.4775 71.497C34.4775 71.8419 34.484 72.1847 34.497 72.5209C34.8164 72.7204 35.1336 72.9157 35.4509 73.1065C36.0918 73.4948 36.7285 73.8701 37.3587 74.2302C37.4709 73.2757 37.5292 72.2801 37.5292 71.2389C37.5292 68.7856 37.0414 66.5058 36.0659 64.3995ZM65.1901 30.0596C62.1234 27.4089 58.1611 26.0836 53.3009 26.0836C48.0545 26.0836 43.9863 27.4089 41.0987 30.0596C38.2111 32.7103 36.7673 36.3241 36.7673 40.9011C36.7673 43.58 37.6414 46.3066 39.3916 49.0831C39.5665 49.3608 39.7434 49.6298 39.9225 49.8922C39.9225 49.8922 39.9225 49.8922 39.9247 49.8944C41.5455 52.2588 43.395 54.031 45.4647 55.211C45.4647 55.211 45.4668 55.211 45.469 55.2132L45.4711 55.2153C45.4841 55.2218 45.497 55.2284 45.5078 55.2327C45.51 55.2305 45.5143 55.2283 45.5165 55.2283C46.0884 55.4171 51.2938 56.9854 58.8085 54.9811C59.6243 54.7642 60.466 54.5039 61.3335 54.1958L61.3357 54.1937C63.7679 52.8162 65.7685 50.9378 67.3354 48.5604C68.9734 46.0767 69.7913 43.5084 69.7913 40.8599C69.7913 36.3111 68.259 32.7103 65.1901 30.0596ZM53.9527 50.0441C52.0427 51.2024 49.5716 50.7143 48.212 48.9356C46.1639 46.2567 45.1388 43.5084 45.1388 40.6907C45.1388 38.4044 45.8941 36.5823 47.4092 35.2287C48.922 33.8752 50.8859 33.1984 53.3009 33.1984C58.7416 33.1984 61.463 35.7255 61.463 40.7753C61.463 43.914 58.9596 47.0029 53.9527 50.0441ZM68.8353 61.3692C67.5706 59.3779 66.1246 57.7424 64.4995 56.4626C63.7852 55.8986 63.0342 55.4062 62.2508 54.9811C61.9961 54.8444 61.7393 54.7143 61.4781 54.5906C61.081 54.7294 60.6883 54.8596 60.2955 54.9811C58.2582 55.6145 56.2921 56.0266 54.6131 56.2262C51.7665 56.5624 49.386 56.378 47.7156 56.109C49.1788 56.4951 50.0421 56.2695 54.5095 58.0201C54.5203 58.0266 54.5289 58.0309 54.5397 58.0374C60.6278 61.3562 63.6708 65.842 63.6708 71.497C63.6708 74.5404 62.7277 77.0869 60.8393 79.1368C59.2682 80.8418 57.3172 81.8374 54.9799 82.1259C54.5052 82.1845 54.0153 82.2127 53.5081 82.2127C53.1326 82.2127 52.7635 82.1996 52.4031 82.1671C52.4031 82.1671 52.401 82.1671 52.3945 82.1671C50.7931 82.037 49.3493 81.6118 48.0631 80.896C45.4042 79.9567 41.6361 78.3863 37.104 75.8353C36.9961 76.3776 36.8688 76.9047 36.7199 77.4167L36.3702 77.2193C36.1415 77.0913 35.9084 76.959 35.6753 76.8245C35.4422 76.6922 35.2048 76.5555 34.9696 76.4167C35.2092 77.5186 35.535 78.5555 35.9494 79.5273C36.0508 79.768 36.1587 80.0045 36.271 80.2366C37.0846 81.922 38.1831 83.397 39.56 84.6616C42.2685 87.1518 45.7862 88.6442 50.1133 89.1409H50.1198C51.1989 89.2668 52.3297 89.3297 53.5081 89.3297C55.3641 89.3297 57.0798 89.193 58.6553 88.9219C67.5533 87.4056 71.9991 81.5966 71.9991 71.497C71.9991 68.0654 70.9438 64.6902 68.8353 61.3692Z" fill="#020203"/>
<path d="M43.6202 79.1282C43.6202 79.1282 53.4139 84.0566 59.9488 79.9894L62.381 82.4948L53.2305 85.3495L42.7656 84.2996L43.6202 79.1282Z" fill="#020203"/>
<path d="M50.1118 89.1454C50.1096 89.1454 50.1074 89.1454 50.1031 89.1432C43.8294 88.64 38.8009 85.1324 35.0652 81.2063C32.3977 78.4037 30.3928 75.3886 29.0633 73.1001C28.7547 72.5687 28.4828 72.0784 28.2476 71.6381C27.9346 71.0503 28.6209 70.4429 29.1626 70.8247C29.1691 70.829 29.1756 70.8333 29.182 70.8399C31.0791 72.1717 32.9005 73.3561 34.6292 74.4016C35.473 74.9135 36.2953 75.3929 37.0938 75.8419C41.6281 78.3929 45.394 79.9633 48.0529 80.9026C50.7074 81.8397 52.2613 82.1498 52.3843 82.1737C52.3886 82.1759 52.3929 82.1759 52.3929 82.1759C52.3929 82.1759 65.2015 90.3558 50.1118 89.1454Z" fill="#020203"/>
<path d="M50.1118 89.1454C50.1096 89.1454 50.1074 89.1454 50.1031 89.1432C43.8294 88.64 38.8009 85.1324 35.0652 81.2063C32.3977 78.4037 30.3928 75.3886 29.0633 73.1001C28.7547 72.5687 28.4828 72.0784 28.2476 71.6381C27.9346 71.0503 28.6209 70.4429 29.1626 70.8247C29.1691 70.829 29.1756 70.8333 29.182 70.8399C31.0791 72.1717 32.9005 73.3561 34.6292 74.4016C35.473 74.9135 36.2953 75.3929 37.0938 75.8419C41.6281 78.3929 45.394 79.9633 48.0529 80.9026C50.7074 81.8397 52.2613 82.1498 52.3843 82.1737C52.3886 82.1759 52.3929 82.1759 52.3929 82.1759C52.3929 82.1759 65.2015 90.3558 50.1118 89.1454Z" fill="#020203"/>
<path d="M50.1305 89.1823C50.1283 89.1823 50.1261 89.1823 50.1218 89.1801C43.8481 88.6769 38.8196 85.1693 35.0839 81.2432C32.4164 78.4406 30.4115 75.4255 29.082 73.137C28.7799 72.6164 28.5123 72.1327 28.2792 71.6967C27.9641 71.1045 28.6569 70.4907 29.2029 70.8746C31.0999 72.2065 32.9214 73.3908 34.6501 74.4364C35.4939 74.9483 36.3162 75.4277 37.1147 75.8767C41.6489 78.4276 45.4149 79.9981 48.0738 80.9373C50.7283 81.8744 52.2821 82.1846 52.4052 82.2084C52.4095 82.2106 52.4138 82.2106 52.4138 82.2106C52.4138 82.2106 65.2202 90.3905 50.1305 89.1823Z" fill="#020203"/>
<path d="M56.1865 83.1194C55.7743 82.7594 55.3578 82.4253 54.9715 82.1303C54.4967 82.1889 54.0068 82.2171 53.5018 82.2171C53.1241 82.2171 52.7572 82.2019 52.3946 82.1715C52.3946 82.1715 52.3925 82.1715 52.386 82.1694C50.7825 82.0392 49.3409 81.6162 48.0546 80.8982C45.3936 79.959 41.6276 78.3885 37.0955 75.8376C36.9876 76.3799 36.8603 76.907 36.7114 77.4167C40.4385 79.4904 44.0879 81.1629 47.5647 82.3906C49.7358 83.1585 51.2012 83.5229 51.8141 83.6574C52.2047 83.9199 53.0399 84.5012 53.8795 85.2018C55.2715 86.3667 55.729 87.0673 55.8779 87.3775C55.4571 87.5662 54.1427 87.9285 50.489 87.6552L50.2473 87.6356C45.2814 87.2365 40.5766 84.7485 36.2646 80.2388C37.0783 81.9242 38.1768 83.3993 39.5537 84.6639C42.2643 87.1541 45.7821 88.6465 50.107 89.1432C50.1092 89.1454 50.1113 89.1454 50.1156 89.1454C51.1947 89.2712 52.3256 89.3319 53.5039 89.3319C55.3599 89.3319 57.0757 89.1974 58.6511 88.9263C58.7482 88.7636 58.8259 88.5901 58.8885 88.4057C59.564 86.371 57.6692 84.4144 56.1865 83.1194Z" fill="#020203"/>
<path d="M32.2531 94.9283V97.809H31.5388L31.5107 94.9283H32.2531Z" fill="#333333"/>
<path d="M31.7342 97.809H31.0781V94.9283H31.6846L31.7342 97.809Z" fill="#333333"/>
<path d="M44.2073 60.6144L43.1153 61.2761L42.4873 61.1199L41.9866 61.4257L42.1053 61.621L41.8333 61.7858L41.7146 61.5906L41.4816 61.7316L41.6003 61.9268L41.2895 62.1155L41.1708 61.9203L40.8471 62.1155L40.9658 62.3129L40.6291 62.5168L40.5104 62.3194L40.3701 62.0852L43.8296 59.9875L44.2073 60.6144Z" fill="#020203"/>
<path d="M43.4746 59.3976L42.3847 60.0592L42.2294 60.6904L41.7287 60.9941L41.61 60.7967L41.338 60.9616L41.4567 61.159L41.2237 61.3L41.105 61.1026L40.7942 61.2913L40.9129 61.4887L40.5892 61.6839L40.4705 61.4887L40.1338 61.6926L40.2525 61.8878L40.3928 62.1221L43.8523 60.0245L43.4746 59.3976Z" fill="#020203"/>
<path d="M32.0987 94.9522L31.2355 94.9435C31.2419 94.4099 31.3304 85.935 31.5764 79.3733C31.4448 79.1065 31.5333 78.7247 31.5786 78.5316C31.5916 78.4774 31.6045 78.421 31.6153 78.3624C31.7361 75.4232 31.8915 73.0046 32.0879 72.0958C32.2368 71.4081 32.3145 71.1587 32.5951 71.0697L32.8347 70.9938L33.0332 71.1695C33.2015 71.3257 33.3332 71.4493 33.0246 74.4927C32.9102 75.6206 32.7354 77.0414 32.5519 78.0674C33.1907 77.2041 34.1662 75.6944 35.1611 74.0111C35.4115 73.586 35.6489 73.1847 36.0568 73.3625C36.4776 73.5469 36.4064 73.792 35.9445 75.3864C35.5388 76.7855 34.8741 79.0848 34.6496 81.0717C34.9647 80.3841 35.3424 79.4752 35.6532 78.7247C36.1755 77.4644 36.7172 76.1607 37.1445 75.3603C37.2783 75.1109 37.5567 74.5903 38.0099 74.7421C38.5645 74.9287 38.5473 75.4232 37.8351 80.0305C37.6171 81.4383 37.3776 82.9849 37.2437 84.2127C37.4833 83.5684 37.7488 82.8157 37.9861 82.1389C38.6811 80.165 39.4688 77.9286 40.0709 76.8701C40.2328 76.5859 40.5673 75.9959 41.068 76.1629C41.7392 76.3885 41.7133 77.3538 40.8565 84.0955C40.7097 85.243 40.5608 86.4252 40.4184 87.6161C41.1198 85.5554 42.2096 81.8483 43.4117 77.3777C43.5736 76.7768 43.7765 76.0284 44.3397 76.1412C44.7001 76.2128 45.039 76.2801 44.9246 79.998C44.8577 82.1216 44.6462 84.7615 44.3527 87.0608C44.057 89.3861 44.5318 90.039 44.8426 90.2212C45.4641 90.5856 46.6382 89.8937 46.9986 89.6225C47.1583 89.4924 51.1293 86.1367 47.2705 79.1065C43.3491 71.9591 39.1645 72.0762 39.1213 72.0806L39.0803 72.0827L39.0393 72.0762C38.7955 72.0394 33.0461 71.1825 30.2125 69.6316C27.4846 68.1392 26.6062 66.4993 26.4854 66.2542C26.3818 66.0807 25.9199 65.213 26.371 64.2976C26.9062 63.213 28.4881 62.571 31.0693 62.3888C33.644 62.2066 34.8763 62.4387 35.774 62.6057C36.9675 62.8291 37.4617 62.9528 40.1724 61.7467L40.5846 62.4322C37.7487 63.6946 37.002 63.7185 35.6143 63.4582C34.7619 63.2976 33.5922 63.0786 31.1276 63.2543C28.1817 63.4625 27.3681 64.2347 27.1458 64.6751C26.8674 65.2282 27.2105 65.7857 27.2256 65.8095L27.2558 65.8659C27.2623 65.8789 28.0069 67.4386 30.6225 68.868C33.2123 70.2845 38.6357 71.1348 39.1278 71.2107C39.1343 71.2107 39.1408 71.2107 39.1472 71.2107C39.7623 71.2107 44.0721 71.4775 48.0259 78.6857C52.2493 86.3818 47.5748 90.269 47.5252 90.308C47.3266 90.4598 45.6325 91.6876 44.4066 90.9718C43.5153 90.4512 43.2153 89.1345 43.4937 86.9523C43.9318 83.5033 44.1067 80.0848 44.0764 78.2236C43.7031 79.5967 42.9499 82.3429 42.2118 84.807C41.7564 86.3276 41.3723 87.525 41.0701 88.3666C40.5716 89.7549 40.3277 90.2017 39.8573 90.1106C39.3544 90.013 39.3328 89.462 39.5206 87.859C39.6738 86.5488 39.84 85.2474 39.9997 83.9871C40.3105 81.5468 40.6536 78.8527 40.6817 77.562C40.1335 78.6423 39.4278 80.6444 38.7998 82.4296C37.4876 86.1541 37.2869 86.6226 36.7215 86.5098C36.2337 86.4144 36.2618 85.7875 36.2834 85.3298C36.346 84.0044 36.6697 81.9155 36.9826 79.896C37.1466 78.8397 37.3322 77.6379 37.4423 76.7291C37.1315 77.4189 36.7862 78.2475 36.4517 79.0587C35.0511 82.4383 34.7532 83.0283 34.1641 82.8808C33.6634 82.755 33.685 82.1021 33.7627 81.2626C33.918 79.6184 34.3842 77.7551 34.7878 76.3039C33.5253 78.3277 32.8454 79.1607 32.4397 79.4796C32.1915 86.1432 32.1009 94.822 32.0987 94.9522Z" fill="#EFCA02"/>
<path d="M62.3025 54.9855H60.2889C58.2516 55.6189 56.2856 56.031 54.6065 56.2306C51.7599 56.5668 49.3795 56.3824 47.7091 56.1135C47.7026 56.1113 47.6961 56.1113 47.6918 56.1091C46.0754 55.8466 45.1279 55.5061 45.0697 55.4866C44.569 55.7772 44.0855 56.0744 43.6194 56.3803C42.7755 56.9334 42.2533 57.8944 42.3418 58.903C42.3677 59.2089 42.4497 59.5017 42.6202 59.7469C43.2374 60.6384 44.2215 62.9117 46.2998 62.8206C46.8911 62.7946 47.4544 62.5603 47.9249 62.198C49.5823 60.9247 51.7837 59.5408 54.5331 58.0419C54.5439 58.0354 54.5526 58.031 54.5634 58.0245H54.5655C56.4755 59.0636 58.0876 60.2176 59.4019 61.4865L64.493 56.467L64.5189 56.441C63.8132 55.8879 63.0751 55.402 62.3025 54.9855ZM45.1301 54.9855C45.2596 55.0657 45.3912 55.1417 45.5229 55.2176V55.2241C45.5186 55.2263 45.5142 55.2284 45.5099 55.2328C46.0818 55.4215 51.2873 56.9898 58.802 54.9855H45.1301Z" fill="#020203"/>
<path d="M27.3711 27.4805C27.3711 27.4805 33.524 29.6691 34.9009 37.0681C34.9009 37.0681 36.949 43.7144 31.5212 50.4171C31.5212 50.415 40.1927 36.8469 27.3711 27.4805Z" fill="#4D4C4C"/>
<path d="M61.876 27.8753C61.876 27.8753 68.0569 29.9143 69.4338 37.3111C69.4338 37.3111 71.6783 43.3371 66.2505 50.0376C66.2484 50.0376 74.6954 37.2417 61.876 27.8753Z" fill="#F4F4F4"/>
<path d="M46.8203 34.808C46.8203 34.808 48.4864 33.0271 51.4344 32.6627C51.4366 32.6627 48.0677 32.667 46.8203 34.808Z" fill="#F4F4F4"/>
<path d="M48.3105 50.0377C48.3105 50.0377 54.813 54.4563 60.2516 49.8099C65.6901 45.1636 61.4558 37.6279 61.4558 37.6279L48.3105 50.0377Z" fill="#383838"/>
<path d="M12.8203 48.9531C12.8203 48.9531 19.3228 53.3717 24.7613 48.7253C30.1999 44.079 25.9656 36.5433 25.9656 36.5433L12.8203 48.9531Z" fill="#383838"/>
<path d="M40.1338 32.0858C40.1338 32.0858 43.3214 26.7279 49.4095 27.0923C49.4095 27.0945 44.7263 28.088 40.1338 32.0858Z" fill="#FDFDFD"/>
<path d="M58.848 24.8103L54.7303 22.4373L55.0864 21.8104C54.8663 18.6695 52.952 4.77167 36.2652 4.77167C36.1637 4.77167 36.0623 4.77167 35.9587 4.77384C19.1899 4.94303 15.8707 17.9211 15.2837 21.3787L15.6764 21.9492L11.7745 24.6693L10.3652 22.626L10.4408 21.7648C10.4602 21.5436 10.9587 16.279 14.3405 10.9755C17.4893 6.03629 23.7868 0.125333 35.9112 0.00169149C43.1151 -0.0677215 48.8925 1.99949 53.0987 6.15559C59.7199 12.6999 59.8602 21.9883 59.8624 22.3809L59.8667 23.0251L58.848 24.8103Z" fill="#020304"/>
<path d="M9.79313 31.2746L8.6709 30.626L9.33345 29.4655L12.1973 21.5067L13.4145 21.9492L10.5118 30.0143L9.79313 31.2746Z" fill="#020203"/>
<path d="M14.2324 21.2095L23.7261 30.2594" stroke="#020203" stroke-width="6" stroke-miterlimit="10"/>
<path d="M58.9722 23.4745L57.7109 23.7694L58.9927 29.307L60.2539 29.0121L58.9722 23.4745Z" fill="#020203"/>
<path d="M55.0894 21.5278L49.0654 28.7398L50.0572 29.5767L56.0812 22.3647L55.0894 21.5278Z" fill="#010202"/>
<path d="M24.5397 5.86503C24.7382 6.26199 25.1418 6.51362 25.5842 6.51362H46.0823C46.6952 6.51362 47.252 6.1557 47.5089 5.59822C47.6383 5.31623 47.4786 4.98434 47.1765 4.91492C45.3291 4.48976 39.4633 3.23163 34.9161 3.23163C30.7832 3.23163 26.7367 4.27284 25.008 4.78043C24.5483 4.91492 24.3239 5.43553 24.5397 5.86503Z" fill="#EFCA02" stroke="#010202" stroke-width="4" stroke-miterlimit="10"/>
<path d="M55.0878 21.5308C55.0878 21.5308 54.5548 13.4744 49.0645 8.82361C49.0645 8.82361 54.9972 11.8258 55.0878 21.5308Z" fill="#333333"/>
<path d="M25.2021 32.9447C25.2021 32.9447 27.943 32.9599 27.8998 36.346C27.8998 36.3482 27.3063 33.4393 25.2021 32.9447Z" fill="#333333"/>
<path d="M14.2324 33.3959C14.2324 33.3959 15.5187 31.8146 17.938 32.4632C17.9401 32.4632 15.4 32.1031 14.2324 33.3959Z" fill="white"/>
<path d="M18.2001 32.1637C18.2001 32.1637 16.5513 31.7689 15.3945 32.7624C15.3945 32.7624 16.6635 32.0357 18.2001 32.1637Z" fill="white"/>
<path d="M24.6869 5.9951C24.8854 6.39206 25.289 6.64368 25.7314 6.64368H46.2295C46.8424 6.64368 47.3992 6.28577 47.6561 5.72829C47.7855 5.44629 47.6258 5.1144 47.3237 5.04499C45.4763 4.61983 39.6105 3.36169 35.0633 3.36169C30.9304 3.36169 26.8839 4.40291 25.1552 4.9105C24.6977 5.04499 24.4732 5.5656 24.6869 5.9951Z" fill="#EFCA02" stroke="#010202" stroke-width="4" stroke-miterlimit="10"/>
<path d="M24.6883 5.92351C24.8826 6.12091 25.2818 6.24672 25.7178 6.24672H45.931C46.5353 6.24672 47.0834 6.06885 47.3381 5.78902C47.4654 5.64802 47.3079 5.48317 47.0101 5.44846C45.1886 5.23588 39.4048 4.60681 34.9201 4.60681C30.8455 4.60681 26.8551 5.12742 25.1502 5.38121C24.697 5.45063 24.4768 5.70876 24.6883 5.92351Z" fill="#E0B70A"/>
<path d="M1.37029 67.3345C1.37029 67.3345 -0.24185 71.6144 1.71559 77.3215C1.71559 77.3215 0.450914 71.5384 1.37029 67.3345Z" fill="white"/>
<path d="M63.0459 66.7597C63.0459 66.7597 65.1069 70.4582 63.4149 75.341C63.4149 75.341 65.8925 71.4452 63.0459 66.6599" fill="white"/>
<path d="M2.67685 39.7146C2.67685 39.7146 2.18263 42.7558 3.7775 45.4109C3.7775 45.4087 2.77828 42.4391 2.67685 39.7146Z" fill="white"/>
<path d="M37.2891 39.9293C37.2891 39.9293 36.7949 42.9705 38.3898 45.6256C38.3898 45.6256 37.3927 42.656 37.2891 39.9293Z" fill="white"/>
<path d="M51.5537 21.958C51.5537 21.958 51.5753 21.6586 52.1191 21.0773C52.1191 21.0751 51.9076 21.3246 51.5537 21.958Z" fill="white"/>
<path d="M54.8546 20.9406L60.1378 23.1315L59.2335 24.6174L54.1338 22.0577L54.8546 20.9406Z" fill="#333333"/>
<path d="M15.6134 20.8495L10.3281 23.0404L11.2345 24.5263L16.3321 21.9645L15.6134 20.8495Z" fill="#333333"/>
<path d="M11.2006 22.9665C11.1682 22.9773 13.0005 22.012 13.0005 22.012C13.0005 22.012 11.9042 22.7127 11.2006 22.9665Z" fill="white"/>
<path d="M15.5986 53.9963C15.5986 53.9963 18.0028 55.4323 21.7062 53.9963C21.704 53.9963 17.7417 54.5842 15.5986 53.9963Z" fill="#333333"/>
<path d="M4.55566 33.3959C4.55566 33.3959 6.16349 30.051 8.57629 29.1595C8.57414 29.1595 6.32103 30.6736 4.55566 33.3959Z" fill="#333333"/>
<path d="M10.3623 22.6238C10.3623 22.6238 11.081 9.10993 22.1911 3.50049C22.1911 3.50266 12.5744 10.2596 10.3623 22.6238Z" fill="#333333"/>
<path d="M49.835 54.9855C49.835 54.9855 52.2391 56.4215 55.9425 54.9855C55.9425 54.9855 51.978 55.5733 49.835 54.9855Z" fill="#333333"/>
<path d="M27.3701 65.2477C27.3701 65.2477 28.2895 66.7358 29.0189 68.6946C29.0189 68.6946 28.9995 69.0872 31.2677 70.4256C33.5359 71.764 31.0239 65.2477 31.0239 65.2477H27.3701Z" fill="#020203"/>
<path d="M31.6758 69.124C31.6758 69.124 35.5842 69.6576 35.6295 69.6576C35.6748 69.6576 37.5157 70.7531 37.5157 70.7531C37.5157 70.7531 37.5395 71.4798 37.5071 72.1566C37.4747 72.8333 34.6001 72.0481 34.6001 72.0481L33.0829 70.9657L32.0362 70.6056L31.6758 69.124Z" fill="#020203"/>
<path d="M44.0422 79.3126L45.1018 79.7638L45.1299 82.0175L44.6055 87.8006L44.4307 87.8375L43.2588 87.3277L44.0422 79.3126Z" fill="#020203"/>
<path d="M40.6459 77.7247L41.6171 78.202L41.3603 81.408L40.7517 85.9547L39.7266 85.2757L40.6459 77.7247Z" fill="#020203"/>
<path d="M38.3887 76.5535L37.4024 83.4602L36.4355 82.5882L37.4326 76.74C37.4326 76.74 37.7067 76.2715 37.8383 76.2563L38.3887 76.5535Z" fill="#020203"/>
<path d="M34.7036 80.8375L33.8555 79.8853L34.7748 76.3039L35.6079 74.985L36.1107 75.2779L34.7036 80.8375Z" fill="#020203"/>
<path d="M31.439 97.8091H31.8944V99.2212L31.78 99.334L31.9311 99.872L31.8016 100H31.5297L31.4023 99.872L31.5513 99.334L31.439 99.2212V97.8091Z" fill="#EFCA02"/>
<path d="M17.9395 49.8663C22.9753 49.8663 27.0576 45.7631 27.0576 40.7016C27.0576 35.6401 22.9753 31.5369 17.9395 31.5369C12.9036 31.5369 8.82129 35.6401 8.82129 40.7016C8.82129 45.7631 12.9036 49.8663 17.9395 49.8663Z" fill="#EFCA02"/>
<path d="M14.9137 32.7625C14.9137 32.7625 11.1261 33.3308 9.92188 37.8297C9.92188 37.8297 11.1261 34.4566 14.9137 32.7625Z" fill="#FEF3F4"/>
<path d="M31.8968 99.0931H31.4414V99.1821H31.8968V99.0931Z" fill="#020203"/>
<path d="M31.8968 98.783H31.4414V98.8719H31.8968V98.783Z" fill="#020203"/>
<path d="M17.9392 50.4151C23.1097 50.4151 27.3012 46.2022 27.3012 41.0053C27.3012 35.8084 23.1097 31.5955 17.9392 31.5955C12.7687 31.5955 8.57715 35.8084 8.57715 41.0053C8.57715 46.2022 12.7687 50.4151 17.9392 50.4151Z" fill="#E9BD06"/>
<path d="M18.3582 49.7469C22.7743 49.7469 26.3542 46.1488 26.3542 41.7102C26.3542 37.2716 22.7743 33.6735 18.3582 33.6735C13.9422 33.6735 10.3623 37.2716 10.3623 41.7102C10.3623 46.1488 13.9422 49.7469 18.3582 49.7469Z" fill="#020203"/>
<path d="M17.1874 48.0051C21.2006 48.0051 24.4539 44.7352 24.4539 40.7016C24.4539 36.6679 21.2006 33.398 17.1874 33.398C13.1742 33.398 9.9209 36.6679 9.9209 40.7016C9.9209 44.7352 13.1742 48.0051 17.1874 48.0051Z" fill="#EFCA02"/>
<path d="M53.2937 51.4823C58.4642 51.4823 62.6557 47.2694 62.6557 42.0725C62.6557 36.8756 58.4642 32.6627 53.2937 32.6627C48.1232 32.6627 43.9316 36.8756 43.9316 42.0725C43.9316 47.2694 48.1232 51.4823 53.2937 51.4823Z" fill="#EFCA02" stroke="#BA970A" stroke-width="0.25" stroke-miterlimit="10"/>
<path d="M53.2938 50.1092C57.7098 50.1092 61.2897 46.511 61.2897 42.0724C61.2897 37.6339 57.7098 34.0357 53.2938 34.0357C48.8778 34.0357 45.2979 37.6339 45.2979 42.0724C45.2979 46.511 48.8778 50.1092 53.2938 50.1092Z" fill="#010202" stroke="#010202" stroke-miterlimit="10"/>
<path d="M60.5603 41.9402C60.5603 45.9726 57.308 49.2437 53.2938 49.2437C49.2797 49.2437 46.0273 45.9748 46.0273 41.9402C46.0273 39.5129 47.2057 37.3633 49.0185 36.0357C50.2185 35.1572 51.6946 34.6388 53.2938 34.6388C57.3058 34.6366 60.5603 37.9055 60.5603 41.9402Z" fill="#EFCA02"/>
<path d="M53.4762 51.3478C58.5323 51.3478 62.631 47.2282 62.631 42.1463C62.631 37.0644 58.5323 32.9447 53.4762 32.9447C48.4201 32.9447 44.3213 37.0644 44.3213 42.1463C44.3213 47.2282 48.4201 51.3478 53.4762 51.3478Z" fill="#E0B70A"/>
<path d="M53.4236 51.4823C58.5941 51.4823 62.7856 47.2694 62.7856 42.0725C62.7856 36.8756 58.5941 32.6627 53.4236 32.6627C48.253 32.6627 44.0615 36.8756 44.0615 42.0725C44.0615 47.2694 48.253 51.4823 53.4236 51.4823Z" fill="#E9BD06"/>
<path d="M54.2812 49.6688C57.8915 49.6688 60.8182 46.7272 60.8182 43.0985C60.8182 39.4697 57.8915 36.5281 54.2812 36.5281C50.6709 36.5281 47.7441 39.4697 47.7441 43.0985C47.7441 46.7272 50.6709 49.6688 54.2812 49.6688Z" fill="#CBA508"/>
<path d="M53.8436 50.8142C58.2596 50.8142 61.8395 47.216 61.8395 42.7774C61.8395 38.3389 58.2596 34.7407 53.8436 34.7407C49.4276 34.7407 45.8477 38.3389 45.8477 42.7774C45.8477 47.216 49.4276 50.8142 53.8436 50.8142Z" fill="#020203"/>
<path d="M52.8915 49.0137C56.9047 49.0137 60.158 45.7438 60.158 41.7102C60.158 37.6765 56.9047 34.4066 52.8915 34.4066C48.8783 34.4066 45.625 37.6765 45.625 41.7102C45.625 45.7438 48.8783 49.0137 52.8915 49.0137Z" fill="#EFCA02" stroke="#EFCA02" stroke-miterlimit="10"/>
<path d="M13.7256 32.9448C13.7256 32.9448 13.7882 32.8689 13.9198 32.7626C14.2349 32.5045 14.9385 32.0685 16.0866 32.0858C16.0866 32.0858 14.6665 32.2225 13.7256 32.9448Z" fill="white"/>
<path d="M25.8174 5.24249C25.8174 5.24249 30.5998 3.88024 33.3299 3.98002C33.3299 3.98002 31.3573 3.9605 25.8174 5.24249Z" fill="white"/>
<path d="M45.917 62.8098C45.917 62.8098 51.0534 57.9443 54.5323 58.0419C54.5323 58.0419 50.6908 60.1786 48.8262 61.5321C48.8262 61.5321 47.1407 63.1308 45.917 62.8098Z" fill="#333333"/>
<path d="M26.3062 65.0461C26.3062 65.0461 26.2566 64.4908 26.727 63.9876C26.727 63.9854 26.3904 64.5147 26.3062 65.0461Z" fill="white"/>
<path d="M31.9482 76.8616L31.7354 79.688H31.8407L31.9482 76.8616Z" fill="white"/>
<path d="M35.6553 73.6186C35.6553 73.6186 35.8473 73.4321 35.9984 73.5384C35.9984 73.5384 35.8409 73.5123 35.6553 73.6186Z" fill="white"/>
<path d="M37.6377 75.098C37.6377 75.098 37.8298 74.9114 37.9808 75.0177C37.983 75.0177 37.8255 74.9917 37.6377 75.098Z" fill="white"/>
<path d="M40.6748 76.3669C40.6748 76.3669 40.8669 76.1804 41.0179 76.2866C41.0179 76.2866 40.8626 76.2606 40.6748 76.3669Z" fill="white"/>
<path d="M44.0244 76.4233C44.0244 76.4233 44.2165 76.2367 44.3676 76.343C44.3676 76.343 44.2122 76.317 44.0244 76.4233Z" fill="white"/>
<path d="M40.0052 71.3692C39.934 71.3561 41.544 71.6707 42.6101 72.5492C42.6101 72.5492 40.8836 71.5253 40.0052 71.3692Z" fill="white"/>
</svg>
