<svg width="36" height="36" viewBox="0 0 36 36" fill="none" xmlns="http://www.w3.org/2000/svg">
<circle cx="18" cy="18" r="18" fill="#F5F5F5"/>
<path d="M12.0488 28.8728C12.193 29.2955 12.5392 29.6759 12.9718 29.8873C13.1786 29.9859 13.2795 30 13.717 30C14.1785 30 14.2458 29.9906 14.4862 29.8685C14.7025 29.7558 15.7746 28.7319 20.2166 24.3969C24.7597 19.9632 25.7116 19.0098 25.8414 18.775C25.9904 18.5072 26 18.4697 26 18C26 17.5303 25.9904 17.4928 25.8414 17.225C25.7116 16.9855 24.7645 16.0415 20.1926 11.5843C15.8371 7.33385 14.6544 6.20665 14.4621 6.11272C14.2554 6.01409 14.1545 6 13.717 6C13.2555 6 13.1882 6.01409 12.9382 6.1362C12.6065 6.30058 12.3276 6.57299 12.145 6.91585C12.0248 7.15068 12.0103 7.22113 12.0103 7.64383C12.0103 8.46575 11.5921 7.99608 17.0293 13.3127L21.8175 18L17.0293 22.6826C11.6546 27.9476 12.0248 27.5295 12.0007 28.2857C11.9959 28.5205 12.0152 28.7601 12.0488 28.8728Z" fill="#292929"/>
</svg>
